<?xml version="1.0" encoding="UTF-8"?>
<svg id="Layer_2" data-name="Layer 2" xmlns="http://www.w3.org/2000/svg" viewBox="0 0 271.01 140.92">
  <defs>
    <style>
      .cls-1 {
        fill: #ef4825;
      }

      .cls-2 {
        fill: #231f20;
      }
    </style>
  </defs>
  <g id="Layer_1-2" data-name="Layer 1">
    <g>
      <path class="cls-1" d="M48.78,111.21h22.79c.17,0,.31.14.31.31v9.13c0,.17-.14.31-.31.31h-22.78c-.17,0-.31.14-.31.31v17.99c0,.17-.14.31-.31.31h-11.8c-.17,0-.31-.14-.31-.31v-50.33c0-.17.14-.31.31-.31h38.23c.17,0,.31.14.31.31v9.2c0,.17-.14.31-.31.31h-25.82c-.17,0-.31.14-.31.31v12.16c0,.17.14.31.31.31Z"/>
      <path class="cls-1" d="M234.44,113.38v19.76c0,.34-.14.66-.39.89-1.03.97-2.51,1.96-4.43,2.96-9.31,4.85-22.53,5.58-31.89.08-8.28-4.86-12.71-12-13.28-21.42-.53-8.66,2.32-15.84,8.54-21.53,6.78-6.2,15.89-7.97,25.35-6.82,6.38.78,11.9,3.56,16.55,8.37.14.15.14.38-.01.53,0,0,0,0,0,0l-7.41,7.06c-.15.15-.38.17-.56.05-.03-.02-.52-.46-1.48-1.34-3.45-3.15-8.22-4.55-12.94-4.32-20.31.96-20.66,30.44-.95,32.36,3.51.34,6.95-.27,10.34-1.84.53-.25.87-.78.87-1.37v-13.52c0-.22.18-.4.4-.4h10.81c.28,0,.5.23.5.5h0Z"/>
      <path class="cls-1" d="M183.59,139.33c.07.16,0,.34-.15.42-.04.02-.08.03-.13.03l-12.76.04c-.12,0-.24-.07-.29-.18l-4.93-10.57c-.05-.11-.16-.18-.29-.18l-23.81.08c-.13,0-.24.08-.29.2l-4.27,10.58c-.05.12-.16.2-.29.2l-12.52.04c-.17,0-.32-.14-.32-.31,0-.05,0-.09.03-.13l23.03-51.69c.05-.11.16-.18.29-.18l12.36-.04c.12,0,.24.07.29.18M145.24,119.01c-.05.11,0,.24.11.28.03.01.06.02.09.02l15.37-.08c.12,0,.21-.1.21-.22,0-.03,0-.06-.02-.08l-7.78-18.1c-.05-.11-.17-.16-.28-.12-.05.02-.09.06-.12.12l-7.59,18.18Z"/>
      <path class="cls-1" d="M84.23,139.77l-.18-51.58c0-.17.14-.31.31-.32l11.99-.04c.17,0,.31.14.32.31l.14,41.25c0,.17.14.31.32.31l25.25-.09c.17,0,.31.14.32.31l.03,9.7c0,.17-.14.31-.31.32l-37.87.13c-.17,0-.31-.14-.32-.31Z"/>
    </g>
    <path d="M97.41,38.62c10.09,4.8,14.83,13.92,12.21,24.74-3.11,12.79-17.33,16.51-29.38,16.49-15.87-.03-30.38-.02-43.52.03-.35,0-.64-.28-.65-.64,0,0,0,0,0-.01V.58c0-.32.26-.58.58-.58,12.27.02,26.79.03,43.56.02,1.12,0,3.22.27,6.3.8,9.91,1.72,19.4,7.94,20.07,18.57.52,8.13-2.55,14.33-9.21,18.59-.17.11-.22.34-.11.51.04.06.09.1.15.13ZM55.33,15.14v16.72c0,.22.17.39.39.39h21.13c5.81,0,10.52-3.68,10.52-8.23h0v-1.04c0-4.55-4.71-8.23-10.52-8.23h-21.13c-.22,0-.39.17-.39.39ZM55.4,46.77l-.1,17.86c0,.22.17.39.39.39h0l23.08.12c6.68.04,12.11-3.76,12.14-8.47,0,0,0,0,0,0v-1.56c.02-4.71-5.37-8.56-12.04-8.6l-23.08-.12c-.22,0-.39.17-.39.39Z"/>
    <path d="M142.8,31.97h36.18c.3,0,.55.25.55.55v13.85c0,.3-.25.55-.55.55h-36.2c-.3,0-.55.25-.55.55h0v16.26c0,.3.25.55.55.55h42.71c.3,0,.55.25.55.55v14.44c0,.3-.25.55-.55.55h-61.68c-.3,0-.55-.25-.55-.55h0V.55c0-.3.25-.55.55-.55h60.17c.3,0,.55.25.55.55v14.28c0,.3-.25.55-.55.55h-41.18c-.3,0-.55.25-.55.55v15.49c0,.3.25.55.55.55h0Z"/>
    <path d="M270.95,79.32c.11.16.06.38-.09.48-.06.04-.12.06-.19.06-7.94,0-14.24.02-18.9.09-2.16.04-2.48-1.03-3.66-2.82-4.33-6.55-8.62-12.97-12.86-19.26-.26-.38-.69-.61-1.15-.61h-15.5c-.23,0-.42.19-.42.43v21.82c0,.19-.15.34-.33.34h-18.36c-.29,0-.52-.23-.52-.52V.62c0-.34.28-.62.62-.62,0,0,0,0,.01,0,22.6.05,34.75.06,36.44.05,16.83-.11,33.55,9.79,33.11,28.6-.27,11.63-5.36,19.93-15.27,24.89-.25.13-.35.43-.23.68.01.02.02.05.04.07l17.26,25.03ZM218.2,15.96l.04,25.7c0,.24.19.43.43.43l16.89-.03c7.81-.01,14.13-5.62,14.12-12.53h0v-1.55c-.02-6.91-6.35-12.49-14.16-12.48l-16.89.03c-.24,0-.43.19-.43.43h0Z"/>
    <g>
      <rect class="cls-2" y="34.21" width="23.14" height="104.77" rx=".51" ry=".51"/>
      <rect class="cls-1" x="0" y="0" width="23.14" height="21.4"/>
    </g>
  </g>
</svg>
