<?xml version="1.0" encoding="UTF-8"?>
<svg id="Capa_1" xmlns="http://www.w3.org/2000/svg" version="1.1" viewBox="0 0 50 50">
  <defs>
    <style>
      .st0 {
        fill: none;
        stroke: #261f47;
        stroke-miterlimit: 10;
        stroke-width: .25px;
      }

      .st1 {
        fill: #261f47;
      }
    </style>
  </defs>
  <path class="st1" d="M7.76,48.03h-2.79c.16-1.17.26-2.34.43-3.51.51-3.41,1.32-7.12,2.13-10.48,3-12.33,10.35-25.63,23.23-29.56,1.96-.6,3.98-.92,6-1.27.09-.04.06-.13.2-.18.81-.28,2.3-.27,3.13-.06,1.08.26,2.02.58,2.72,1.48.29.37.24.56.03.97l-1.53.03c-3.33.66-6.7.81-9.97,1.84-9.07,2.86-15.04,11.11-18.55,19.55-2.5,6-3.71,12.57-4.73,18.97-.12.74-.23,1.48-.3,2.23h0Z"/>
  <path class="st0" d="M42.54,5.36s-1.8,3.67-3.95,18.29c-2.05,12.62-3.67,24.38-3.67,24.38"/>
</svg>
