<?xml version="1.0" encoding="UTF-8"?>
<svg id="Capa_1" xmlns="http://www.w3.org/2000/svg" version="1.1" viewBox="0 0 50 50">
  <defs>
    <style>
      .st0, .st1 {
        fill: none;
        stroke: #261f47;
        stroke-miterlimit: 10;
        stroke-width: .25px;
      }

      .st1 {
        stroke-dasharray: 3.07 7.16;
      }
    </style>
  </defs>
  <path class="st0" d="M5.57,48c.16-1.17.26-2.34.43-3.51.51-3.41,1.32-7.12,2.13-10.48,3-12.33,10.35-25.63,23.23-29.56,1.96-.6,3.98-.92,6-1.27.09-.04.06-.13.2-.18.81-.28,2.3-.27,3.13-.06,1.08.26,2.02.58,2.72,1.48.29.37.24.56.03.97"/>
  <path class="st0" d="M43.13,5.33s-1.8,3.67-3.95,18.29c-2.05,12.62-3.67,24.38-3.67,24.38"/>
  <g>
    <path class="st0" d="M43.41,4.42c.29.37.24.56.03.97l-1.5.03"/>
    <path class="st1" d="M34.86,6.54c-.98.19-1.96.41-2.93.72-9.07,2.86-15.04,11.11-18.55,19.55-2.13,5.13-3.33,10.67-4.27,16.17"/>
    <path class="st0" d="M8.54,46.51c-.07.49-.14.99-.18,1.49"/>
  </g>
</svg>
