<svg width="2400" height="1400" viewBox="0 0 2400 1400" fill="none" xmlns="http://www.w3.org/2000/svg">
  <defs>
    <linearGradient id="baseDark" x1="2400" y1="700" x2="780" y2="700" gradientUnits="userSpaceOnUse">
      <stop offset="0" stop-color="#050505"/>
      <stop offset="0.4" stop-color="#111111"/>
      <stop offset="1" stop-color="#2A2A2A"/>
    </linearGradient>
    <linearGradient id="orangeBandA" x1="2280" y1="260" x2="1040" y2="1120" gradientUnits="userSpaceOnUse">
      <stop offset="0" stop-color="#EF4825"/>
      <stop offset="0.52" stop-color="#F36944"/>
      <stop offset="1" stop-color="#F7C7B7" stop-opacity="0.08"/>
    </linearGradient>
    <linearGradient id="orangeBandB" x1="2390" y1="840" x2="1220" y2="260" gradientUnits="userSpaceOnUse">
      <stop offset="0" stop-color="#EF4825"/>
      <stop offset="0.45" stop-color="#D93D1D"/>
      <stop offset="1" stop-color="#B6290E" stop-opacity="0"/>
    </linearGradient>
    <filter id="orangeSoft" x="1300" y="70" width="1320" height="1240" filterUnits="userSpaceOnUse" color-interpolation-filters="sRGB">
      <feGaussianBlur stdDeviation="54"/>
    </filter>
  </defs>

  <rect width="2400" height="1400" fill="#0D0D0D"/>
  <rect x="960" y="-30" width="1540" height="1470" fill="url(#baseDark)"/>

  <path d="M2400 120V1270C2042 1328 1718 1230 1442 1006C1172 786 1112 538 1266 328C1420 112 1734 74 2142 172L2400 120Z" fill="url(#orangeBandA)"/>
  <path d="M2400 622V1340C2106 1372 1860 1292 1648 1138C1422 972 1364 768 1460 612C1566 446 1800 396 2118 470L2400 622Z" fill="url(#orangeBandB)" opacity="0.86"/>

  <g filter="url(#orangeSoft)" opacity="0.46">
    <ellipse cx="2100" cy="290" rx="280" ry="180" fill="#EF4825"/>
    <ellipse cx="1982" cy="1080" rx="330" ry="220" fill="#EF4825"/>
  </g>
</svg>
