<?xml version="1.0" encoding="UTF-8"?>

<svg xmlns="http://www.w3.org/2000/svg" viewBox="0 0 1909.973 5503.566" width="1909.973" height="5503.566" data-template-bounds="0 0 1909.973 5503.566" preserveAspectRatio="xMidYMid meet">
<title>Fly Banner Drop 245CM Print Area</title>
<path id="print-area-shape" data-personalizable-outline="true" d="M 1292.706 6434.229 C 1289.57 6394.42 1285.563 6349.438 1280.849 6299.741 C 1228.324 5746.026 1193.091 4606.855 1192.139 3516.031 C 1192.084 3453.855 1189.116 3391.802 1191.259 3330.094 C 1210.887 2764.761 1214.388 2599.278 1242.352 2274.003 C 1246.79 2222.377 1273.317 2011.546 1312.835 1818.638 C 1348.452 1644.771 1419.645 1485.168 1427.055 1470.392 C 1474.569 1375.622 1531.448 1291.731 1595.96 1220.375 C 1761.393 1037.393 2090.76 930.663 2414.861 1036.728 C 2895.65 1194.069 3090.721 1722.831 3097.404 1740.541 C 3098.523 1743.507 3099.089 1745.06 3099.089 1745.06 L 1292.706 6434.229" transform="translate(-1189.116 -930.663)" fill="none" stroke="#ef4444" stroke-width="1" vector-effect="non-scaling-stroke" />
</svg>
