<?xml version="1.0" encoding="UTF-8"?>

<svg xmlns="http://www.w3.org/2000/svg" viewBox="0 0 3956.288 12601.48" width="3956.288" height="12601.48" data-template-bounds="0 0 3956.288 12601.48" preserveAspectRatio="xMidYMid meet">
<title>Fly Banner Drop 540CM Print Area</title>
<path id="print-area-shape" data-personalizable-outline="true" d="M 353.009 13434.123 C 321.176 13094.74 292.571 12736.311 267.386 12365.414 C 242.201 11994.518 220.435 11611.152 202.276 11221.9 C 184.116 10832.648 169.565 10437.508 158.81 10043.059 C 148.055 9648.61 141.097 9254.854 138.124 8868.367 C 135.152 8481.881 136.164 8102.666 141.351 7737.301 C 146.538 7371.935 163.775 7020.421 177.5 6689.336 C 203.78 6308.028 230.012 6066.621 260.963 5748.461 C 283.603 5464.816 312.566 5223.67 344.5 5000.623 C 390.5 4672.461 431.639 4433.718 498.334 4076.649 C 567.858 3781.785 642.897 3500.943 723.907 3236.805 C 804.918 2972.666 903.089 2725.231 996.5 2497.181 C 1089.912 2269.131 1290.5 1972.461 1373.5 1841.461 C 1498.5 1633.461 1608.777 1520.987 1670.5 1436.932 C 1799.546 1285.388 1883.5 1183.461 2025.58 1072.381 C 2159.675 969.461 2291.951 892.763 2444.113 862.702 C 2596.276 832.643 2756.694 832.694 2925.828 865.54 C 2969.844 874.088 3012.91 888.059 3054.976 906.741 C 3097.04 925.424 3138.104 948.817 3178.112 976.212 C 3218.117 1003.605 3257.071 1035 3294.912 1069.684 C 3332.755 1104.368 3369.488 1142.341 3405.061 1182.891 C 3440.633 1223.441 3475.043 1266.57 3508.238 1311.565 C 3541.432 1356.56 3573.41 1403.422 3604.121 1451.439 C 3634.831 1499.456 3664.273 1548.629 3692.391 1598.245 C 3720.51 1647.861 3747.307 1697.922 3772.729 1747.716 C 3798.151 1797.51 3822.196 1847.036 3844.813 1895.584 C 3867.43 1944.132 3888.617 1991.701 3908.324 2037.581 C 3928.03 2083.462 3946.254 2127.652 3962.944 2169.441 C 3979.631 2211.231 3994.783 2250.62 4008.348 2286.896 C 4021.912 2323.173 4033.888 2356.338 4044.221 2385.679 C 4054.554 2415.021 4063.244 2440.538 4070.24 2461.521 C 4077.237 2482.505 4082.535 2498.953 4086.086 2510.156 C 4089.637 2521.359 4091.44 2527.316 4091.44 2527.316 L 3857.787 3208.991 L 3624.136 3890.667 L 3390.485 4572.343 L 3156.832 5254.019 L 2923.18 5935.693 L 2689.53 6617.369 L 2455.877 7299.044 L 2222.225 7980.721 L 1988.573 8662.395 L 1754.921 9344.07 L 1521.269 10025.746 L 1287.617 10707.422 L 1053.965 11389.098 L 820.313 12070.772 L 586.661 12752.447 L 353.009 13434.123" transform="translate(-135.152 -832.643)" fill="none" stroke="#ef4444" stroke-width="1" vector-effect="non-scaling-stroke" />
</svg>
