<?xml version="1.0" encoding="UTF-8"?>
<svg id="Layer_2" data-name="Layer 2" xmlns="http://www.w3.org/2000/svg" viewBox="0 0 495.24 117.49">
  <defs>
    <style>
      .cls-1 {
        fill: #ef4825;
      }

      .cls-2 {
        fill: #231f20;
      }
    </style>
  </defs>
  <g id="Layer_1-2" data-name="Layer 1">
    <g>
      <path class="cls-1" d="M302.85,50.12h23.54c.17,0,.32.14.32.32v9.43c0,.17-.14.32-.32.32h-23.54c-.17,0-.32.14-.32.32v18.59c0,.17-.14.32-.32.32h-12.19c-.17,0-.32-.14-.32-.32V27.1c0-.17.14-.32.32-.32h39.5c.17,0,.32.14.32.32v9.51c0,.17-.14.32-.32.32h-26.68c-.17,0-.32.14-.32.32v12.57c0,.17.14.32.32.32Z"/>
      <path class="cls-1" d="M494.68,52.37v20.42c0,.35-.14.68-.4.92-1.07,1-2.6,2.02-4.58,3.05-9.62,5.01-23.28,5.76-32.95.08-8.56-5.02-13.13-12.4-13.73-22.13-.55-8.95,2.39-16.36,8.83-22.25,7-6.41,16.42-8.24,26.19-7.04,6.6.8,12.3,3.68,17.1,8.64.15.15.14.4-.01.54,0,0,0,0,0,0l-7.66,7.3c-.16.15-.4.17-.57.05-.03-.02-.54-.48-1.53-1.39-3.56-3.25-8.49-4.7-13.37-4.47-20.98.99-21.35,31.45-.98,33.44,3.62.36,7.18-.28,10.68-1.91.55-.25.9-.81.9-1.41v-13.97c0-.23.18-.41.41-.41h11.16c.29,0,.52.23.52.52h0Z"/>
      <path class="cls-1" d="M442.13,79.18c.08.16,0,.36-.16.43-.04.02-.09.03-.13.03l-13.18.05c-.13,0-.24-.07-.3-.19l-5.09-10.92c-.05-.12-.17-.19-.3-.19l-24.6.09c-.13,0-.25.08-.3.2l-4.41,10.93c-.05.12-.17.2-.3.2l-12.93.05c-.18,0-.33-.14-.33-.32,0-.05,0-.09.03-.14l23.79-53.4c.05-.12.17-.19.3-.19l12.77-.04c.13,0,.24.07.3.19M402.52,58.19c-.05.11,0,.24.12.29.03.01.06.02.09.02l15.88-.08c.12,0,.22-.1.22-.23,0-.03,0-.06-.02-.09l-8.04-18.71c-.05-.11-.18-.17-.29-.12-.05.02-.1.07-.12.12l-7.84,18.79Z"/>
      <path class="cls-1" d="M339.48,79.63l-.19-53.29c0-.18.14-.32.32-.33l12.39-.04c.18,0,.32.14.33.32l.15,42.62c0,.18.15.32.33.32l26.09-.09c.18,0,.32.14.33.32l.03,10.02c0,.18-.14.32-.32.33l-39.13.14c-.18,0-.32-.14-.33-.32Z"/>
    </g>
    <path d="M93.83,38.62c10.09,4.8,14.83,13.92,12.21,24.74-3.11,12.79-17.33,16.51-29.38,16.49-15.87-.03-30.38-.02-43.52.03-.35,0-.64-.28-.65-.64,0,0,0,0,0-.01V.58c0-.32.26-.58.58-.58,12.27.02,26.79.03,43.56.02,1.12,0,3.22.27,6.3.8,9.91,1.72,19.4,7.94,20.07,18.57.52,8.13-2.55,14.33-9.21,18.59-.17.11-.22.34-.11.51.04.06.09.1.15.13ZM51.75,15.14v16.72c0,.22.17.39.39.39h21.13c5.81,0,10.52-3.68,10.52-8.23h0v-1.04c0-4.55-4.71-8.23-10.52-8.23h-21.13c-.22,0-.39.17-.39.39ZM51.82,46.77l-.1,17.86c0,.22.17.39.39.39h0l23.08.12c6.68.04,12.11-3.76,12.14-8.47,0,0,0,0,0,0v-1.56c.02-4.71-5.37-8.56-12.04-8.6l-23.08-.12c-.22,0-.39.17-.39.39Z"/>
    <path d="M139.22,31.97h36.18c.3,0,.55.25.55.55v13.85c0,.3-.25.55-.55.55h-36.2c-.3,0-.55.25-.55.55h0v16.26c0,.3.25.55.55.55h42.71c.3,0,.55.25.55.55v14.44c0,.3-.25.55-.55.55h-61.68c-.3,0-.55-.25-.55-.55h0V.55c0-.3.25-.55.55-.55h60.17c.3,0,.55.25.55.55v14.28c0,.3-.25.55-.55.55h-41.18c-.3,0-.55.25-.55.55v15.49c0,.3.25.55.55.55h0Z"/>
    <path d="M267.37,79.32c.11.16.06.38-.09.48-.06.04-.12.06-.19.06-7.94,0-14.24.02-18.9.09-2.16.04-2.48-1.03-3.66-2.82-4.33-6.55-8.62-12.97-12.86-19.26-.26-.38-.69-.61-1.15-.61h-15.5c-.23,0-.42.19-.42.43v21.82c0,.19-.15.34-.33.34h-18.36c-.29,0-.52-.23-.52-.52V.62c0-.34.28-.62.62-.62,0,0,0,0,.01,0,22.6.05,34.75.06,36.44.05,16.83-.11,33.55,9.79,33.11,28.6-.27,11.63-5.36,19.93-15.27,24.89-.25.13-.35.43-.23.68.01.02.02.05.04.07l17.26,25.03ZM214.62,15.96l.04,25.7c0,.24.19.43.43.43l16.89-.03c7.81-.01,14.13-5.62,14.12-12.53h0v-1.55c-.02-6.91-6.35-12.49-14.16-12.48l-16.89.03c-.24,0-.43.19-.43.43h0Z"/>
    <g>
      <path class="cls-2" d="M69.1,117.34c-6.56,0-10.73-4-10.89-10.57-.05-2.34-.08-7.41-.07-15.2,0-.34.28-.61.62-.61h3c.37,0,.67.3.67.67,0,0,0,0,0,0-.1,8.28-.06,13.5.13,15.66.33,3.83,2.77,6.1,6.53,6.1s6.21-2.28,6.54-6.11c.18-2.16.21-7.38.11-15.66,0-.37.29-.67.66-.68,0,0,0,0,0,0h3c.34,0,.62.27.62.61h0c.01,7.79,0,12.85-.06,15.19-.15,6.58-4.31,10.59-10.87,10.59Z"/>
      <path class="cls-2" d="M131.48,113.9v2.57c0,.33-.26.59-.59.59h-16.14c-.33,0-.59-.26-.59-.59h0v-24.95c0-.33.26-.59.59-.59h2.99c.33,0,.59.26.59.59h0v21.19c0,.33.26.59.59.59h11.97c.33,0,.59.26.59.59Z"/>
      <path class="cls-2" d="M149.82,104.07c0,3.39,1.26,5.92,3.77,7.59,4.14,2.75,8.19,2.39,12.16-1.1.18-.16.45-.15.61,0l2.16,2.17c.19.18.19.48,0,.67h0c-8.4,8.38-23.12,2.81-23.13-9.34,0-12.14,14.72-17.71,23.13-9.34.19.18.19.48,0,.67h0s-2.16,2.17-2.16,2.17c-.17.16-.43.17-.61,0-3.96-3.49-8.02-3.86-12.16-1.09-2.51,1.67-3.77,4.2-3.77,7.58Z"/>
      <path class="cls-2" d="M329.58,104.08c0,7.38-5.99,13.37-13.37,13.37h0c-7.38,0-13.37-5.99-13.37-13.37h0c0-7.39,5.99-13.37,13.37-13.37s13.37,5.99,13.37,13.37ZM315.58,94.7c-4.96.31-8.71,4.77-8.38,9.95h0c.33,5.19,4.61,9.14,9.57,8.82h0c4.96-.31,8.71-4.77,8.38-9.95-.33-5.19-4.61-9.14-9.57-8.82h0Z"/>
      <path class="cls-2" d="M438.9,104.1c0,7.38-5.98,13.36-13.36,13.36s-13.36-5.98-13.36-13.36,5.98-13.36,13.36-13.36,13.36,5.98,13.36,13.36ZM424.78,94.72c-4.97.4-8.66,4.91-8.24,10.07.42,5.16,4.78,9.02,9.75,8.62,0,0,0,0,0,0,4.97-.4,8.66-4.91,8.24-10.07-.42-5.16-4.78-9.02-9.75-8.62h0Z"/>
      <path class="cls-2" d="M469.01,104.07c0,7.41-6.01,13.42-13.42,13.42h0c-7.41,0-13.42-6.01-13.42-13.42s6.01-13.42,13.42-13.42h0c7.41,0,13.42,6.01,13.42,13.42h0ZM455.77,94.77c-5-.08-9.12,4.05-9.2,9.21h0c-.08,5.17,3.91,9.42,8.9,9.5,5,.08,9.12-4.05,9.2-9.21h0c.08-5.17-3.91-9.42-8.9-9.5Z"/>
      <path class="cls-2" d="M36.84,116.54c0,.33-.26.59-.59.59h-3.11c-.36,0-.65-.29-.65-.65h0v-25.01c0-.27.22-.49.49-.49,7.44,0,20.61-1.98,20.3,9.58-.25,9.7-9.22,8.64-15.88,8.78-.32,0-.57.26-.57.58v6.63ZM37.02,95.27l-.06,9.57c0,.27.21.49.48.49l5.8.04c3.07.02,5.58-2.11,5.6-4.78,0,0,0,0,0,0v-.91c.02-2.66-2.45-4.84-5.52-4.86l-5.8-.04c-.27,0-.5.21-.5.48,0,0,0,0,0,0Z"/>
      <path class="cls-2" d="M105.09,103.09c-.23.16-.28.48-.11.7.04.06.1.11.16.15,2.86,1.64,4.03,4.11,3.52,7.42-.57,3.77-3.81,5.32-7.3,5.52-3.44.2-8.12.24-14.02.14-.31,0-.55-.26-.55-.56v-24.85c0-.32.25-.58.57-.59,6.72-.15,11.38-.08,13.98.21,6.08.69,8.86,8.21,3.75,11.87ZM91.05,95.32l-.06,5.93c0,.34.26.62.6.62,0,0,0,0,0,0l7.63.07c2.31.02,4.19-1.5,4.21-3.39,0,0,0,0,0,0v-.32c.01-1.89-1.85-3.43-4.15-3.45l-7.63-.07c-.34,0-.61.27-.61.61ZM91.1,106.17l-.07,6.63c0,.32.25.58.57.58l8.18.09c2.63.03,4.78-1.65,4.8-3.76h0v-.18c.02-2.1-2.09-3.83-4.72-3.86h0l-8.18-.09c-.32,0-.58.26-.58.58h0Z"/>
      <rect class="cls-2" x="135.69" y="91" width="4.34" height="26.03" rx=".61" ry=".61" transform="translate(-.36 .48) rotate(-.2)"/>
      <rect class="cls-2" x="173.3" y="91" width="4.22" height="26.05" rx=".63" ry=".63" transform="translate(-.36 .61) rotate(-.2)"/>
      <path class="cls-2" d="M185.03,91.4c0-.2.16-.35.35-.35h0l10.89-.06c7.13-.04,12.95,5.44,12.99,12.24,0,0,0,0,0,.01v1.46c.03,6.8-5.72,12.34-12.85,12.38l-10.89.06c-.2,0-.35-.16-.35-.35h0s-.14-25.38-.14-25.38ZM189.4,95.44l-.1,17.24c0,.32.26.58.58.58h0l6.14.03c4.84.03,8.78-3.81,8.81-8.57h0v-1.16c.03-4.76-3.87-8.64-8.71-8.67l-6.14-.03c-.32,0-.58.26-.58.58Z"/>
      <path class="cls-2" d="M223.95,90.93c.54,0,1.07.04,1.59.13.22.04.4.18.49.37l11.44,24.73c.15.32.01.69-.31.84-.08.04-.17.06-.27.06h-2.98c-.5,0-.95-.29-1.16-.75l-2.36-5.09c-.09-.21-.29-.34-.52-.35-2.58-.03-4.54-.04-5.86-.03-1.31,0-3.26.03-5.85.07-.23,0-.44.14-.52.35l-2.32,5.1c-.21.46-.66.76-1.16.76l-2.98.02c-.35,0-.63-.29-.63-.64,0-.09.02-.17.05-.25l11.26-24.81c.09-.2.27-.34.49-.38.51-.09,1.04-.14,1.58-.14ZM219.53,106.59c-.1.23,0,.5.24.59.06.02.12.04.18.04h8.15c.25,0,.46-.2.46-.45,0-.06-.01-.13-.04-.18l-4.07-9.86c-.09-.23-.35-.35-.59-.26-.12.05-.22.14-.26.26l-4.07,9.86Z"/>
      <path class="cls-2" d="M240.86,91.42c0-.23.18-.42.41-.42l10.73-.04c7.24-.03,13.13,5.57,13.15,12.5,0,0,0,0,0,.01v1.05c.02,6.93-5.82,12.56-13.06,12.59l-10.73.04c-.23,0-.43-.18-.43-.41,0,0,0,0,0,0l-.08-25.3ZM245.28,95.43l-.06,17.34c0,.28.23.51.51.51l6.11.03c4.89.02,8.87-3.78,8.88-8.49h0v-1.32c.02-4.71-3.94-8.53-8.83-8.55l-6.11-.03c-.28,0-.51.23-.51.51Z"/>
      <path class="cls-2" d="M275.32,101.83h11.1c.33,0,.59.26.59.59h0v2.66c0,.33-.26.59-.59.59h-11.09c-.33,0-.59.26-.59.59v6.43c0,.33.26.59.59.59h13.16c.33,0,.59.26.59.59h0v2.58c0,.33-.26.59-.59.59h-17.52c-.33,0-.59-.26-.59-.59v-24.89c0-.33.26-.59.59-.59h16.94c.33,0,.59.26.59.59h0v2.62c0,.33-.26.59-.59.59h-12.59c-.33,0-.59.26-.59.59h0v5.86c0,.33.26.59.59.59Z"/>
      <path class="cls-2" d="M345.33,113.4c3.76,0,6.19-2.28,6.52-6.09.18-2.15.21-7.35.11-15.61,0-.37.29-.67.66-.68h2.99c.34,0,.62.27.62.61h0c.02,7.76,0,12.81-.05,15.15-.16,6.55-4.3,10.55-10.85,10.55s-10.69-3.99-10.85-10.54c-.05-2.33-.08-7.38-.07-15.15,0-.34.28-.61.62-.61h2.99c.37,0,.67.3.67.67,0,0,0,0,0,0-.1,8.26-.06,13.46.12,15.61.34,3.82,2.77,6.08,6.52,6.08Z"/>
      <path class="cls-2" d="M370.14,90.94c3.5,0,6.8,0,9.9.03.44,0,.8.36.8.8v2.26c0,.44-.36.8-.8.8h-7.25c-.22,0-.4.18-.4.39v21.26c0,.3-.22.55-.51.59-.24.04-.81.06-1.69.06s-1.45-.02-1.7-.06c-.29-.04-.51-.29-.51-.58l-.07-21.26c0-.22-.18-.39-.4-.39h0l-7.25.02c-.44,0-.8-.35-.81-.79h0s0-2.26,0-2.26c0-.44.35-.8.79-.81,0,0,0,0,0,0,3.11-.03,6.41-.05,9.9-.06Z"/>
      <path class="cls-2" d="M384.7,91.57c0-.32.26-.57.57-.57l10.61-.02c7.22-.01,13.08,5.68,13.1,12.72h0v.63c.01,7.04-5.83,12.75-13.06,12.76l-10.61.02c-.32,0-.57-.26-.57-.57h0s-.04-24.97-.04-24.97ZM389.11,95.51l-.06,17.04c0,.37.3.67.67.67l6.04.03c4.83.02,8.76-3.85,8.78-8.63h0v-1.07c.02-4.78-3.89-8.67-8.72-8.69l-6.04-.02c-.37,0-.67.29-.67.66Z"/>
      <path class="cls-2" d="M495.13,116.24c.19.28.11.65-.16.83-.1.07-.21.1-.33.1h-2.47c-.76,0-1.47-.38-1.9-1.01l-4.37-6.33c-.26-.38-.69-.6-1.14-.6h-5.62c-.34,0-.61.28-.61.62v6.58c0,.36-.29.65-.65.65h-3c-.4,0-.73-.33-.73-.73h0v-24.66c0-.34.27-.61.61-.62,4.37-.13,8.1-.12,11.17.04,9.91.5,12.25,11.95,4.47,17.3-.25.18-.31.53-.14.78l4.87,7.05ZM478.62,95.33l.02,9.57c0,.29.24.53.53.53h5.54c3.29-.02,5.95-2.31,5.95-5.13v-.41c0-2.82-2.67-5.1-5.96-5.1h-5.54c-.29,0-.53.25-.53.54h0Z"/>
    </g>
    <g>
      <rect class="cls-2" y="28.92" width="19.56" height="88.58" rx=".51" ry=".51"/>
      <rect class="cls-1" x="0" y="0" width="19.56" height="18.09"/>
    </g>
  </g>
</svg>